<svg xmlns="http://www.w3.org/2000/svg" viewBox="0 0 640 520" role="img" aria-labelledby="heroTitle heroDesc">
  <title id="heroTitle">Global Mobile Service Illustration</title>
  <desc id="heroDesc">Planet-like sphere with orbiting app nodes indicating worldwide technology operations.</desc>
  <defs>
    <linearGradient id="planet" x1="0" y1="0" x2="1" y2="1">
      <stop offset="0%" stop-color="#1B66B4"/>
      <stop offset="100%" stop-color="#0B2E5F"/>
    </linearGradient>
    <linearGradient id="ring" x1="0" y1="0" x2="1" y2="1">
      <stop offset="0%" stop-color="#FEDA86"/>
      <stop offset="100%" stop-color="#DB9C1A"/>
    </linearGradient>
  </defs>
  <rect width="640" height="520" fill="none"/>
  <circle cx="320" cy="260" r="150" fill="url(#planet)"/>
  <ellipse cx="320" cy="260" rx="210" ry="70" fill="none" stroke="url(#ring)" stroke-width="12"/>
  <ellipse cx="320" cy="260" rx="230" ry="94" fill="none" stroke="#7DD0FF" stroke-width="5" stroke-opacity="0.7"/>
  <circle cx="140" cy="232" r="28" fill="#6CC4FF"/>
  <circle cx="502" cy="190" r="24" fill="#F5C44F"/>
  <circle cx="510" cy="338" r="22" fill="#8FD8FF"/>
  <circle cx="200" cy="370" r="20" fill="#F3B93A"/>
  <path d="M270 226h100M270 260h100M270 294h100" stroke="#CFEAFF" stroke-width="10" stroke-linecap="round"/>
  <path d="M182 220l8 15 17 2-12 12 3 17-16-8-16 8 3-17-12-12 17-2z" fill="#0A2D56"/>
  <path d="M488 176l6 11 12 2-9 9 2 13-11-6-11 6 2-13-9-9 12-2z" fill="#093564"/>
</svg>
